#!OML:ASF E:/inclinewalkrobotboard/Project1/Captureday1/Session1/subject1.ASF
:FULLY-SPECIFIED
:DEGREES
363
root 0 0 0 1.7860679792018082 -3.894515950168527 2.8162573212024506
lowerback 12.185004180456874 0.9298795377464479 -0.7247086354716002
upperback -4.101552629345496 1.108752839130049 -0.8068398897936196
thorax -11.254489973569672 0.5187511657701952 -0.6943428838630674
lowerneck -6.978381212490895 1.380499338726932 4.311478759656836
upperneck 19.600606635568198 2.8438733509879537 -8.255534758838186
head 7.303299833765039 0.9702027783171091 -3.197896588564009
rclavicle -5.838024278682867E-16 -1.958668633111671E-15
rhumerus 15.863826601287885 11.190715281301726 -50.04479571205779
rradius 67.64040213878602
rwrist 25.259145194799796
rhand -32.906298686893685 -49.249511160819196
rfingers 7.125019999999964
rthumb -6.167865095505785 -79.39384299642532
lclavicle 4.710140131931764E-16 -3.3857351915231527E-16
lhumerus 17.340425278024718 -12.58925791559746 49.02332185503765
lradius 66.5987364504143
lwrist -18.87885212470114
lhand -43.98186684654666 -61.51505120679254
lfingers 7.125019999999956
lthumb -16.820608797944328 -32.0659232751493
rfemur -33.28646195302663 -2.4019286335460377 14.63344353442399
rtibia 61.875094013193035
rfoot -9.889044561985305 -12.915564120253782
rtoes -9.679268049502864
lfemur -18.141592645904552 4.467121984333766 -14.997266560758394
ltibia 66.7545048910911
lfoot -8.481203643175496 -9.06644936038726
ltoes -15.778351400786299
364
root 0 0 0 1.6215089187649094 -3.772574299337925 2.9224058254374925
lowerback 12.288710610762717 0.8438848046909453 -0.8589274375735582
upperback -4.0546845573151975 0.9806413223745349 -0.7761483222216287
thorax -11.278065939307355 0.46049917726169254 -0.5683406503602617
lowerneck -7.067565118344487 1.409714765964899 4.305881772518537
upperneck 19.558549370767995 2.889383608082997 -8.277688832583348
head 7.30267493886182 0.9880724366609878 -3.2008837965872727
rclavicle -7.800096594528319E-16 -2.153363666481118E-15
rhumerus 15.95417094793162 11.31767769724493 -50.12216789787804
rradius 67.71514892877738
rwrist 25.171117506607835
rhand -32.9096392582198 -49.24354265779504
rfingers 7.125019999999964
rthumb -6.171726974961111 -79.37632528296001
lclavicle 2.4073879879650183E-16 -4.32114599775502E-16
lhumerus 17.47515032075811 -12.819239124116443 49.0799109073522
lradius 66.76290867100968
lwrist -18.762165903189707
lhand -44.00181208919318 -61.402429140339706
lfingers 7.125019999999957
lthumb -16.8402784511528 -31.9562111219394
rfemur -35.02580998175695 -2.53131454876739 14.595991863928193
rtibia 61.96919212518473
rfoot -10.899675063765315 -13.48814071721582
rtoes -8.389757447435494
lfemur -19.761227952871888 5.181399452602045 -15.370644983808718
ltibia 69.24737804087746
lfoot -8.579205791888835 -8.636441076871893
ltoes -12.879899719200079
365
root 0 0 0 1.6538697636545532 -3.7274631769439988 2.9282576308171957
lowerback 12.329429114846631 0.803890967082848 -0.8884594592840945
upperback -4.038545502966857 0.9263063914333463 -0.7504743935656654
thorax -11.286014485616397 0.43462104117354805 -0.519128620931411
lowerneck -7.1194677610903465 1.4291732162551927 4.305205786414213
upperneck 19.46540244562246 2.920348784340238 -8.288200006126159
head 7.27892248904987 1.0014111658646572 -3.2010213449846363
rclavicle -9.84923469414655E-16 -2.155062370354847E-15
rhumerus 16.285179853961175 11.76369468392013 -50.38242400783979
rradius 67.98139918371601
rwrist 24.875664935083858
rhand -32.923106989784856 -49.228819599616514
rfingers 7.125019999999964
rthumb -6.1863575820078385 -79.34014755116814
lclavicle 1.862448743535102E-16 -3.7476176406509134E-16
lhumerus 17.638195822897103 -13.147346735112889 49.186125762788436
lradius 66.97361046595464
lwrist -18.575956178408784
lhand -44.013920801889796 -61.15968800646389
lfingers 7.125019999999957
lthumb -16.8514609726414 -31.71764443169801
rfemur -36.04359339608011 -2.3423057012178354 14.685778924620125
rtibia 59.66227622286925
rfoot -13.462137706726626 -14.554932534385754
rtoes -8.742532362710932
lfemur -21.755483486495603 5.317809587740878 -15.521230331981384
ltibia 68.46301204081205
lfoot -11.14136020324518 -6.690634748173075
ltoes -11.563241808918761
366
root 0 0 0 1.8401690999484286 -3.762406710346273 2.8287499727063143
lowerback 12.313618769192457 0.8189319953930593 -0.7987659679286748
upperback -4.053338088964963 0.9591858476656304 -0.7341857877332546
thorax -11.283892784534572 0.4475233277430574 -0.5607779243891382
lowerneck -7.127162647984327 1.4386938546277521 4.3154198771471854
upperneck 19.33224957081588 2.935045993273982 -8.2901382870336
head 7.23471045255227 1.0096233565539015 -3.2005955229442318
rclavicle -1.208095346672354E-15 -2.0099085789177773E-15
rhumerus 16.754854459706976 12.380392862730472 -50.72682482877876
rradius 68.35834826982128
rwrist 24.48203058573214
rhand -32.94691909956829 -49.23043668377639
rfingers 7.125019999999964
rthumb -6.21126210514025 -79.31937052464653
lclavicle 2.37911111929861E-16 -1.830185927184402E-16
lhumerus 17.822938873801753 -13.502850036603961 49.295162686071635
lradius 67.20481463147239
lwrist -18.379110799573038
lhand -44.026851563168904 -60.89755790217336
lfingers 7.1250199999999575
lthumb -16.862057929120258 -31.460556522598534
rfemur -35.841691312266235 -1.8885566926143316 15.119263249270443
rtibia 55.95794918999313
rfoot -17.015646828672224 -15.708960328097625
rtoes -10.244698550288389
lfemur -23.68064841119829 4.97326528526497 -15.558686531331038
ltibia 64.54645907546312
lfoot -15.282447932360549 -3.692895594092743
ltoes -11.56537083105968
367
root 0 0 0 2.1136947909957304 -3.872221283192451 2.6521104520924244
lowerback 12.250156775820576 0.8868751277088359 -0.6169672669884675
upperback -4.089650879695522 1.072820090406328 -0.7325021678163165
thorax -11.270317541119981 0.4969185590862672 -0.6814309304568844
lowerneck -7.096423363468082 1.4310617259989746 4.3260800696062685
upperneck 19.184544701113193 2.9211988662907196 -8.267826806870985
head 7.179714370353597 1.0079159755377534 -3.1941804669486276
rclavicle -1.4070509118485268E-15 -1.78685944057079E-15
rhumerus 17.250630580235047 13.030978047262773 -51.09221600247919
rradius 68.75734059870227
rwrist 24.06553775001396
rhand -32.97149061065855 -49.22972819083941
rfingers 7.125019999999964
rthumb -6.23701873030598 -79.29971052209798
lclavicle 3.464101625335488E-16 8.548384658861407E-17
lhumerus 17.97649538358459 -13.799587039287356 49.38558382797153
lradius 67.39660213163941
lwrist -18.215659307077715
lhand -44.034303516887285 -60.66769065643706
lfingers 7.1250199999999575
lthumb -16.86681407633256 -31.2341911973602
rfemur -33.98301372633708 -1.223244573424735 16.086160071246333
rtibia 51.489539670244994
rfoot -21.277729403536696 -16.673912331852726
rtoes -12.559289756858064
lfemur -25.069192869971353 4.174340210940075 -15.671117020267051
ltibia 56.813548589669765
lfoot -20.781435739092075 0.35208166226318527
ltoes -12.60527442129547
